<svg width="208" height="208" viewBox="0 0 208 208" fill="none" xmlns="http://www.w3.org/2000/svg">
<path d="M208 92.3716C205.074 66.4489 192.482 42.5689 172.722 25.4672C152.962 8.36549 127.476 -0.708982 101.319 0.0432936C75.1611 0.795569 50.2425 11.3197 31.5041 29.5286C12.7657 47.7375 1.5761 72.3014 0.154232 98.3492C-1.26763 124.397 7.18208 150.026 23.8278 170.154C40.4734 190.283 64.0994 203.44 90.0205 207.018C115.942 210.595 142.265 204.331 163.77 189.467C185.275 174.604 200.392 152.227 206.122 126.774H179.061C174.547 145 164.643 156.609 148.619 167.684C132.595 178.759 112.981 183.426 93.667 180.761C74.3526 178.095 56.7483 168.291 44.3453 153.293C31.9422 138.295 25.6462 119.198 26.7056 99.7894C27.7651 80.3807 36.1027 62.0776 50.0651 48.5097C64.0275 34.9418 82.5949 27.1001 102.085 26.5396C121.576 25.979 140.566 32.7406 155.29 45.4835C170.014 58.2264 179.389 73.056 181.569 92.3716H208Z" fill="#6800BA"/>
<rect x="34.1069" y="70" width="19.0597" height="69" fill="#6800BA"/>
<path d="M85.7688 68H113.355L76.7405 102L50.6587 99.5L85.7688 68Z" fill="#6800BA"/>
<path d="M41.6304 98.5L76.7404 102.001L126.396 147.001H94.797L41.6304 98.5Z" fill="#6800BA"/>
</svg>
